<mxfile host="app.diagrams.net" modified="2021-12-27T09:41:11.902Z" agent="5.0 (Macintosh; Intel Mac OS X 10_14_6) AppleWebKit/537.36 (KHTML, like Gecko) Chrome/96.0.4664.110 Safari/537.36" etag="jV-rduB5D6dsN5W7hcpR" version="15.9.6" type="github" pages="3">
  <diagram id="C5RBs43oDa-KdzZeNtuy" name="Page-1">
    <mxGraphModel dx="1186" dy="773" grid="1" gridSize="10" guides="1" tooltips="1" connect="1" arrows="1" fold="1" page="1" pageScale="1" pageWidth="827" pageHeight="1169" math="0" shadow="0">
      <root>
        <mxCell id="WIyWlLk6GJQsqaUBKTNV-0" />
        <mxCell id="WIyWlLk6GJQsqaUBKTNV-1" parent="WIyWlLk6GJQsqaUBKTNV-0" />
        <mxCell id="WIyWlLk6GJQsqaUBKTNV-2" value="" style="rounded=0;html=1;jettySize=auto;orthogonalLoop=1;fontSize=11;endArrow=block;endFill=0;endSize=8;strokeWidth=1;shadow=0;labelBackgroundColor=none;edgeStyle=orthogonalEdgeStyle;" parent="WIyWlLk6GJQsqaUBKTNV-1" source="WIyWlLk6GJQsqaUBKTNV-3" target="WIyWlLk6GJQsqaUBKTNV-6" edge="1">
          <mxGeometry relative="1" as="geometry" />
        </mxCell>
        <mxCell id="WIyWlLk6GJQsqaUBKTNV-3" value="进入原生方法" style="rounded=1;whiteSpace=wrap;html=1;fontSize=12;glass=0;strokeWidth=1;shadow=0;" parent="WIyWlLk6GJQsqaUBKTNV-1" vertex="1">
          <mxGeometry x="160" y="100" width="120" height="40" as="geometry" />
        </mxCell>
        <mxCell id="WIyWlLk6GJQsqaUBKTNV-4" value="Yes" style="rounded=0;html=1;jettySize=auto;orthogonalLoop=1;fontSize=11;endArrow=block;endFill=0;endSize=8;strokeWidth=1;shadow=0;labelBackgroundColor=none;edgeStyle=orthogonalEdgeStyle;" parent="WIyWlLk6GJQsqaUBKTNV-1" source="WIyWlLk6GJQsqaUBKTNV-6" target="WIyWlLk6GJQsqaUBKTNV-10" edge="1">
          <mxGeometry y="20" relative="1" as="geometry">
            <mxPoint as="offset" />
          </mxGeometry>
        </mxCell>
        <mxCell id="WIyWlLk6GJQsqaUBKTNV-5" value="No" style="edgeStyle=orthogonalEdgeStyle;rounded=0;html=1;jettySize=auto;orthogonalLoop=1;fontSize=11;endArrow=block;endFill=0;endSize=8;strokeWidth=1;shadow=0;labelBackgroundColor=none;" parent="WIyWlLk6GJQsqaUBKTNV-1" source="WIyWlLk6GJQsqaUBKTNV-6" target="WIyWlLk6GJQsqaUBKTNV-7" edge="1">
          <mxGeometry y="10" relative="1" as="geometry">
            <mxPoint as="offset" />
          </mxGeometry>
        </mxCell>
        <mxCell id="WIyWlLk6GJQsqaUBKTNV-6" value="是否需要升级" style="rhombus;whiteSpace=wrap;html=1;shadow=0;fontFamily=Helvetica;fontSize=12;align=center;strokeWidth=1;spacing=6;spacingTop=-4;" parent="WIyWlLk6GJQsqaUBKTNV-1" vertex="1">
          <mxGeometry x="170" y="170" width="100" height="80" as="geometry" />
        </mxCell>
        <mxCell id="WIyWlLk6GJQsqaUBKTNV-7" value="结束" style="rounded=1;whiteSpace=wrap;html=1;fontSize=12;glass=0;strokeWidth=1;shadow=0;" parent="WIyWlLk6GJQsqaUBKTNV-1" vertex="1">
          <mxGeometry x="320" y="190" width="120" height="40" as="geometry" />
        </mxCell>
        <mxCell id="WIyWlLk6GJQsqaUBKTNV-8" value="No" style="rounded=0;html=1;jettySize=auto;orthogonalLoop=1;fontSize=11;endArrow=block;endFill=0;endSize=8;strokeWidth=1;shadow=0;labelBackgroundColor=none;edgeStyle=orthogonalEdgeStyle;" parent="WIyWlLk6GJQsqaUBKTNV-1" source="WIyWlLk6GJQsqaUBKTNV-10" target="WIyWlLk6GJQsqaUBKTNV-11" edge="1">
          <mxGeometry x="0.3333" y="20" relative="1" as="geometry">
            <mxPoint as="offset" />
          </mxGeometry>
        </mxCell>
        <mxCell id="WIyWlLk6GJQsqaUBKTNV-9" value="Yes" style="edgeStyle=orthogonalEdgeStyle;rounded=0;html=1;jettySize=auto;orthogonalLoop=1;fontSize=11;endArrow=block;endFill=0;endSize=8;strokeWidth=1;shadow=0;labelBackgroundColor=none;" parent="WIyWlLk6GJQsqaUBKTNV-1" source="WIyWlLk6GJQsqaUBKTNV-10" target="WIyWlLk6GJQsqaUBKTNV-12" edge="1">
          <mxGeometry y="10" relative="1" as="geometry">
            <mxPoint as="offset" />
          </mxGeometry>
        </mxCell>
        <mxCell id="WIyWlLk6GJQsqaUBKTNV-10" value="是否&lt;br&gt;需要进行差分" style="rhombus;whiteSpace=wrap;html=1;shadow=0;fontFamily=Helvetica;fontSize=12;align=center;strokeWidth=1;spacing=6;spacingTop=-4;" parent="WIyWlLk6GJQsqaUBKTNV-1" vertex="1">
          <mxGeometry x="170" y="290" width="100" height="80" as="geometry" />
        </mxCell>
        <mxCell id="rElpOWa6F_HKRSrrGDhD-23" style="edgeStyle=orthogonalEdgeStyle;rounded=0;orthogonalLoop=1;jettySize=auto;html=1;exitX=0.5;exitY=1;exitDx=0;exitDy=0;entryX=0;entryY=0.5;entryDx=0;entryDy=0;" parent="WIyWlLk6GJQsqaUBKTNV-1" source="WIyWlLk6GJQsqaUBKTNV-11" target="rElpOWa6F_HKRSrrGDhD-19" edge="1">
          <mxGeometry relative="1" as="geometry" />
        </mxCell>
        <mxCell id="WIyWlLk6GJQsqaUBKTNV-11" value="开始全量包下载" style="rounded=1;whiteSpace=wrap;html=1;fontSize=12;glass=0;strokeWidth=1;shadow=0;" parent="WIyWlLk6GJQsqaUBKTNV-1" vertex="1">
          <mxGeometry x="160" y="500" width="120" height="40" as="geometry" />
        </mxCell>
        <mxCell id="rElpOWa6F_HKRSrrGDhD-9" style="edgeStyle=orthogonalEdgeStyle;rounded=0;orthogonalLoop=1;jettySize=auto;html=1;exitX=1;exitY=0.5;exitDx=0;exitDy=0;entryX=0;entryY=0.5;entryDx=0;entryDy=0;" parent="WIyWlLk6GJQsqaUBKTNV-1" source="WIyWlLk6GJQsqaUBKTNV-12" target="rElpOWa6F_HKRSrrGDhD-8" edge="1">
          <mxGeometry relative="1" as="geometry" />
        </mxCell>
        <mxCell id="WIyWlLk6GJQsqaUBKTNV-12" value="开始下载差分包" style="rounded=1;whiteSpace=wrap;html=1;fontSize=12;glass=0;strokeWidth=1;shadow=0;" parent="WIyWlLk6GJQsqaUBKTNV-1" vertex="1">
          <mxGeometry x="320" y="310" width="120" height="40" as="geometry" />
        </mxCell>
        <mxCell id="rElpOWa6F_HKRSrrGDhD-3" style="edgeStyle=orthogonalEdgeStyle;rounded=0;orthogonalLoop=1;jettySize=auto;html=1;exitX=0.5;exitY=1;exitDx=0;exitDy=0;entryX=0.5;entryY=0;entryDx=0;entryDy=0;" parent="WIyWlLk6GJQsqaUBKTNV-1" source="rElpOWa6F_HKRSrrGDhD-0" target="WIyWlLk6GJQsqaUBKTNV-3" edge="1">
          <mxGeometry relative="1" as="geometry" />
        </mxCell>
        <mxCell id="rElpOWa6F_HKRSrrGDhD-0" value="RN发起检测更新" style="rounded=1;whiteSpace=wrap;html=1;fontSize=12;glass=0;strokeWidth=1;shadow=0;" parent="WIyWlLk6GJQsqaUBKTNV-1" vertex="1">
          <mxGeometry x="160" y="30" width="120" height="40" as="geometry" />
        </mxCell>
        <mxCell id="rElpOWa6F_HKRSrrGDhD-4" value="json数据，加载方式" style="text;html=1;align=center;verticalAlign=middle;resizable=0;points=[];autosize=1;strokeColor=none;fillColor=none;" parent="WIyWlLk6GJQsqaUBKTNV-1" vertex="1">
          <mxGeometry x="294" y="110" width="120" height="20" as="geometry" />
        </mxCell>
        <mxCell id="rElpOWa6F_HKRSrrGDhD-11" style="edgeStyle=orthogonalEdgeStyle;rounded=0;orthogonalLoop=1;jettySize=auto;html=1;exitX=0.5;exitY=1;exitDx=0;exitDy=0;" parent="WIyWlLk6GJQsqaUBKTNV-1" source="rElpOWa6F_HKRSrrGDhD-5" target="rElpOWa6F_HKRSrrGDhD-7" edge="1">
          <mxGeometry relative="1" as="geometry" />
        </mxCell>
        <mxCell id="rElpOWa6F_HKRSrrGDhD-5" value="清理并重建文件夹" style="rounded=1;whiteSpace=wrap;html=1;fontSize=12;glass=0;strokeWidth=1;shadow=0;" parent="WIyWlLk6GJQsqaUBKTNV-1" vertex="1">
          <mxGeometry x="630" y="310" width="120" height="40" as="geometry" />
        </mxCell>
        <mxCell id="rElpOWa6F_HKRSrrGDhD-16" value="" style="edgeStyle=orthogonalEdgeStyle;rounded=0;orthogonalLoop=1;jettySize=auto;html=1;" parent="WIyWlLk6GJQsqaUBKTNV-1" source="rElpOWa6F_HKRSrrGDhD-6" target="rElpOWa6F_HKRSrrGDhD-15" edge="1">
          <mxGeometry relative="1" as="geometry" />
        </mxCell>
        <mxCell id="rElpOWa6F_HKRSrrGDhD-6" value="进行patch包合并" style="rounded=1;whiteSpace=wrap;html=1;fontSize=12;glass=0;strokeWidth=1;shadow=0;" parent="WIyWlLk6GJQsqaUBKTNV-1" vertex="1">
          <mxGeometry x="480" y="497" width="120" height="40" as="geometry" />
        </mxCell>
        <mxCell id="rElpOWa6F_HKRSrrGDhD-13" style="edgeStyle=orthogonalEdgeStyle;rounded=0;orthogonalLoop=1;jettySize=auto;html=1;exitX=0.5;exitY=1;exitDx=0;exitDy=0;entryX=0.5;entryY=0;entryDx=0;entryDy=0;" parent="WIyWlLk6GJQsqaUBKTNV-1" source="rElpOWa6F_HKRSrrGDhD-7" target="rElpOWa6F_HKRSrrGDhD-6" edge="1">
          <mxGeometry relative="1" as="geometry" />
        </mxCell>
        <mxCell id="rElpOWa6F_HKRSrrGDhD-7" value="在目标路径中进行下载" style="rounded=1;whiteSpace=wrap;html=1;fontSize=12;glass=0;strokeWidth=1;shadow=0;" parent="WIyWlLk6GJQsqaUBKTNV-1" vertex="1">
          <mxGeometry x="480" y="410" width="120" height="40" as="geometry" />
        </mxCell>
        <mxCell id="rElpOWa6F_HKRSrrGDhD-10" style="edgeStyle=orthogonalEdgeStyle;rounded=0;orthogonalLoop=1;jettySize=auto;html=1;exitX=1;exitY=0.5;exitDx=0;exitDy=0;entryX=0;entryY=0.5;entryDx=0;entryDy=0;" parent="WIyWlLk6GJQsqaUBKTNV-1" source="rElpOWa6F_HKRSrrGDhD-8" target="rElpOWa6F_HKRSrrGDhD-5" edge="1">
          <mxGeometry relative="1" as="geometry" />
        </mxCell>
        <mxCell id="rElpOWa6F_HKRSrrGDhD-12" style="edgeStyle=orthogonalEdgeStyle;rounded=0;orthogonalLoop=1;jettySize=auto;html=1;exitX=0.5;exitY=1;exitDx=0;exitDy=0;" parent="WIyWlLk6GJQsqaUBKTNV-1" source="rElpOWa6F_HKRSrrGDhD-8" target="rElpOWa6F_HKRSrrGDhD-7" edge="1">
          <mxGeometry relative="1" as="geometry" />
        </mxCell>
        <mxCell id="rElpOWa6F_HKRSrrGDhD-8" value="当前下载路径&lt;br&gt;是否存在" style="rhombus;whiteSpace=wrap;html=1;shadow=0;fontFamily=Helvetica;fontSize=12;align=center;strokeWidth=1;spacing=6;spacingTop=-4;" parent="WIyWlLk6GJQsqaUBKTNV-1" vertex="1">
          <mxGeometry x="490" y="290" width="100" height="80" as="geometry" />
        </mxCell>
        <mxCell id="rElpOWa6F_HKRSrrGDhD-14" value="下载完成" style="text;html=1;align=center;verticalAlign=middle;resizable=0;points=[];autosize=1;strokeColor=none;fillColor=none;" parent="WIyWlLk6GJQsqaUBKTNV-1" vertex="1">
          <mxGeometry x="550" y="460" width="60" height="20" as="geometry" />
        </mxCell>
        <mxCell id="rElpOWa6F_HKRSrrGDhD-17" style="edgeStyle=orthogonalEdgeStyle;rounded=0;orthogonalLoop=1;jettySize=auto;html=1;exitX=0;exitY=0.5;exitDx=0;exitDy=0;entryX=1;entryY=0.5;entryDx=0;entryDy=0;" parent="WIyWlLk6GJQsqaUBKTNV-1" source="rElpOWa6F_HKRSrrGDhD-15" target="WIyWlLk6GJQsqaUBKTNV-11" edge="1">
          <mxGeometry relative="1" as="geometry" />
        </mxCell>
        <mxCell id="rElpOWa6F_HKRSrrGDhD-20" style="edgeStyle=orthogonalEdgeStyle;rounded=0;orthogonalLoop=1;jettySize=auto;html=1;exitX=0.5;exitY=1;exitDx=0;exitDy=0;entryX=1;entryY=0.5;entryDx=0;entryDy=0;" parent="WIyWlLk6GJQsqaUBKTNV-1" source="rElpOWa6F_HKRSrrGDhD-15" target="rElpOWa6F_HKRSrrGDhD-19" edge="1">
          <mxGeometry relative="1" as="geometry" />
        </mxCell>
        <mxCell id="rElpOWa6F_HKRSrrGDhD-15" value="进行md5比较" style="rhombus;whiteSpace=wrap;html=1;shadow=0;fontFamily=Helvetica;fontSize=12;align=center;strokeWidth=1;spacing=6;spacingTop=-4;" parent="WIyWlLk6GJQsqaUBKTNV-1" vertex="1">
          <mxGeometry x="490" y="560" width="100" height="80" as="geometry" />
        </mxCell>
        <mxCell id="rElpOWa6F_HKRSrrGDhD-18" value="不匹配" style="text;html=1;align=center;verticalAlign=middle;resizable=0;points=[];autosize=1;strokeColor=none;fillColor=none;" parent="WIyWlLk6GJQsqaUBKTNV-1" vertex="1">
          <mxGeometry x="415" y="565" width="50" height="20" as="geometry" />
        </mxCell>
        <mxCell id="rElpOWa6F_HKRSrrGDhD-25" style="edgeStyle=orthogonalEdgeStyle;rounded=0;orthogonalLoop=1;jettySize=auto;html=1;exitX=0.5;exitY=1;exitDx=0;exitDy=0;entryX=0.5;entryY=0;entryDx=0;entryDy=0;" parent="WIyWlLk6GJQsqaUBKTNV-1" source="rElpOWa6F_HKRSrrGDhD-19" target="rElpOWa6F_HKRSrrGDhD-24" edge="1">
          <mxGeometry relative="1" as="geometry" />
        </mxCell>
        <mxCell id="rElpOWa6F_HKRSrrGDhD-19" value="将文件解压并复制到&lt;br&gt;工作目录下" style="rounded=1;whiteSpace=wrap;html=1;fontSize=12;glass=0;strokeWidth=1;shadow=0;" parent="WIyWlLk6GJQsqaUBKTNV-1" vertex="1">
          <mxGeometry x="320" y="700" width="120" height="40" as="geometry" />
        </mxCell>
        <mxCell id="rElpOWa6F_HKRSrrGDhD-21" value="md5一致" style="text;html=1;align=center;verticalAlign=middle;resizable=0;points=[];autosize=1;strokeColor=none;fillColor=none;" parent="WIyWlLk6GJQsqaUBKTNV-1" vertex="1">
          <mxGeometry x="550" y="660" width="60" height="20" as="geometry" />
        </mxCell>
        <mxCell id="rElpOWa6F_HKRSrrGDhD-24" value="生成并存储新的配置信息" style="rounded=1;whiteSpace=wrap;html=1;fontSize=12;glass=0;strokeWidth=1;shadow=0;" parent="WIyWlLk6GJQsqaUBKTNV-1" vertex="1">
          <mxGeometry x="320" y="780" width="120" height="40" as="geometry" />
        </mxCell>
        <mxCell id="rElpOWa6F_HKRSrrGDhD-26" value="" style="shape=curlyBracket;whiteSpace=wrap;html=1;rounded=1;size=0.5;" parent="WIyWlLk6GJQsqaUBKTNV-1" vertex="1">
          <mxGeometry x="110" y="910" width="20" height="120" as="geometry" />
        </mxCell>
        <mxCell id="rElpOWa6F_HKRSrrGDhD-27" value="CodePush" style="text;html=1;align=center;verticalAlign=middle;resizable=0;points=[];autosize=1;strokeColor=none;fillColor=none;" parent="WIyWlLk6GJQsqaUBKTNV-1" vertex="1">
          <mxGeometry x="35" y="960" width="70" height="20" as="geometry" />
        </mxCell>
        <mxCell id="rElpOWa6F_HKRSrrGDhD-28" value="文件目录说明" style="text;html=1;align=center;verticalAlign=middle;resizable=0;points=[];autosize=1;strokeColor=none;fillColor=none;" parent="WIyWlLk6GJQsqaUBKTNV-1" vertex="1">
          <mxGeometry x="25" y="870" width="90" height="20" as="geometry" />
        </mxCell>
        <mxCell id="rElpOWa6F_HKRSrrGDhD-29" value="wholeDownload&amp;nbsp; 全量包的下载目录" style="text;html=1;align=left;verticalAlign=middle;resizable=0;points=[];autosize=1;strokeColor=none;fillColor=none;" parent="WIyWlLk6GJQsqaUBKTNV-1" vertex="1">
          <mxGeometry x="143" y="900" width="200" height="20" as="geometry" />
        </mxCell>
        <mxCell id="rElpOWa6F_HKRSrrGDhD-30" value="patchDownload&amp;nbsp; &amp;nbsp;差分包的下载目录" style="text;html=1;align=center;verticalAlign=middle;resizable=0;points=[];autosize=1;strokeColor=none;fillColor=none;" parent="WIyWlLk6GJQsqaUBKTNV-1" vertex="1">
          <mxGeometry x="137" y="933" width="200" height="20" as="geometry" />
        </mxCell>
        <mxCell id="rElpOWa6F_HKRSrrGDhD-31" value="temp 差分包和老的全量包合并的临时目录" style="text;html=1;align=center;verticalAlign=middle;resizable=0;points=[];autosize=1;strokeColor=none;fillColor=none;" parent="WIyWlLk6GJQsqaUBKTNV-1" vertex="1">
          <mxGeometry x="137" y="964" width="240" height="20" as="geometry" />
        </mxCell>
        <mxCell id="rElpOWa6F_HKRSrrGDhD-33" value="unzipped 解压的目录" style="text;html=1;align=center;verticalAlign=middle;resizable=0;points=[];autosize=1;strokeColor=none;fillColor=none;" parent="WIyWlLk6GJQsqaUBKTNV-1" vertex="1">
          <mxGeometry x="135" y="993" width="130" height="20" as="geometry" />
        </mxCell>
        <mxCell id="rElpOWa6F_HKRSrrGDhD-34" value="workSpace 更新后bundle实际所在的目录" style="text;html=1;align=center;verticalAlign=middle;resizable=0;points=[];autosize=1;strokeColor=none;fillColor=none;" parent="WIyWlLk6GJQsqaUBKTNV-1" vertex="1">
          <mxGeometry x="137" y="1020" width="230" height="20" as="geometry" />
        </mxCell>
        <mxCell id="rElpOWa6F_HKRSrrGDhD-35" value="whole.7z" style="text;html=1;align=center;verticalAlign=middle;resizable=0;points=[];autosize=1;strokeColor=none;fillColor=none;" parent="WIyWlLk6GJQsqaUBKTNV-1" vertex="1">
          <mxGeometry x="380" y="900" width="60" height="20" as="geometry" />
        </mxCell>
        <mxCell id="rElpOWa6F_HKRSrrGDhD-36" value="patch.7z" style="text;html=1;align=center;verticalAlign=middle;resizable=0;points=[];autosize=1;strokeColor=none;fillColor=none;" parent="WIyWlLk6GJQsqaUBKTNV-1" vertex="1">
          <mxGeometry x="379" y="930" width="60" height="20" as="geometry" />
        </mxCell>
        <mxCell id="rElpOWa6F_HKRSrrGDhD-37" value="whole.7z" style="text;html=1;align=center;verticalAlign=middle;resizable=0;points=[];autosize=1;strokeColor=none;fillColor=none;" parent="WIyWlLk6GJQsqaUBKTNV-1" vertex="1">
          <mxGeometry x="380.5" y="960" width="60" height="20" as="geometry" />
        </mxCell>
        <mxCell id="rElpOWa6F_HKRSrrGDhD-38" value="实际解压后的文件" style="text;html=1;align=center;verticalAlign=middle;resizable=0;points=[];autosize=1;strokeColor=none;fillColor=none;" parent="WIyWlLk6GJQsqaUBKTNV-1" vertex="1">
          <mxGeometry x="375.5" y="1000" width="110" height="20" as="geometry" />
        </mxCell>
      </root>
    </mxGraphModel>
  </diagram>
  <diagram id="W8wnbmSTOGEU2pgaqwfK" name="第 2 页">
    <mxGraphModel dx="1186" dy="773" grid="0" gridSize="10" guides="1" tooltips="1" connect="1" arrows="1" fold="1" page="1" pageScale="1" pageWidth="3300" pageHeight="2339" math="0" shadow="0">
      <root>
        <mxCell id="2FAXvyK_8TZZ7jOZVoMo-0" />
        <mxCell id="2FAXvyK_8TZZ7jOZVoMo-1" parent="2FAXvyK_8TZZ7jOZVoMo-0" />
        <mxCell id="2FAXvyK_8TZZ7jOZVoMo-2" value="RN Component" style="rounded=0;whiteSpace=wrap;html=1;fillColor=#FFCCFF;strokeColor=none;strokeWidth=3;" parent="2FAXvyK_8TZZ7jOZVoMo-1" vertex="1">
          <mxGeometry x="350" y="199" width="420" height="40" as="geometry" />
        </mxCell>
        <mxCell id="2FAXvyK_8TZZ7jOZVoMo-3" value="RN 基建" style="rounded=0;whiteSpace=wrap;html=1;fillColor=#E5CCFF;strokeColor=none;strokeWidth=3;fontColor=#333333;" parent="2FAXvyK_8TZZ7jOZVoMo-1" vertex="1">
          <mxGeometry x="350" y="256" width="420" height="40" as="geometry" />
        </mxCell>
        <mxCell id="2FAXvyK_8TZZ7jOZVoMo-4" value="Bridge" style="rounded=0;whiteSpace=wrap;html=1;strokeColor=none;strokeWidth=3;fillColor=#f8cecc;" parent="2FAXvyK_8TZZ7jOZVoMo-1" vertex="1">
          <mxGeometry x="350" y="310" width="130" height="40" as="geometry" />
        </mxCell>
        <mxCell id="2FAXvyK_8TZZ7jOZVoMo-5" value="Code Push" style="rounded=0;whiteSpace=wrap;html=1;strokeColor=none;strokeWidth=3;fillColor=#f8cecc;" parent="2FAXvyK_8TZZ7jOZVoMo-1" vertex="1">
          <mxGeometry x="495" y="310" width="130" height="40" as="geometry" />
        </mxCell>
        <mxCell id="2FAXvyK_8TZZ7jOZVoMo-6" value="其他" style="rounded=0;whiteSpace=wrap;html=1;strokeColor=none;strokeWidth=3;fillColor=#f8cecc;" parent="2FAXvyK_8TZZ7jOZVoMo-1" vertex="1">
          <mxGeometry x="641" y="310" width="130" height="40" as="geometry" />
        </mxCell>
        <mxCell id="2FAXvyK_8TZZ7jOZVoMo-7" value="" style="rounded=0;whiteSpace=wrap;html=1;strokeColor=none;strokeWidth=3;fillColor=#b1ddf0;" parent="2FAXvyK_8TZZ7jOZVoMo-1" vertex="1">
          <mxGeometry x="350" y="365" width="420" height="93" as="geometry" />
        </mxCell>
        <mxCell id="2FAXvyK_8TZZ7jOZVoMo-8" value="路由" style="rounded=1;whiteSpace=wrap;html=1;strokeColor=none;strokeWidth=3;" parent="2FAXvyK_8TZZ7jOZVoMo-1" vertex="1">
          <mxGeometry x="362" y="375" width="80" height="30" as="geometry" />
        </mxCell>
        <mxCell id="2FAXvyK_8TZZ7jOZVoMo-9" value="日志" style="rounded=1;whiteSpace=wrap;html=1;strokeColor=none;strokeWidth=3;" parent="2FAXvyK_8TZZ7jOZVoMo-1" vertex="1">
          <mxGeometry x="465" y="375" width="80" height="30" as="geometry" />
        </mxCell>
        <mxCell id="2FAXvyK_8TZZ7jOZVoMo-10" value="定位" style="rounded=1;whiteSpace=wrap;html=1;strokeColor=none;strokeWidth=3;" parent="2FAXvyK_8TZZ7jOZVoMo-1" vertex="1">
          <mxGeometry x="570" y="375" width="80" height="30" as="geometry" />
        </mxCell>
        <mxCell id="2FAXvyK_8TZZ7jOZVoMo-11" value="生命周期" style="rounded=1;whiteSpace=wrap;html=1;strokeColor=none;strokeWidth=3;" parent="2FAXvyK_8TZZ7jOZVoMo-1" vertex="1">
          <mxGeometry x="676" y="375" width="80" height="30" as="geometry" />
        </mxCell>
        <mxCell id="2FAXvyK_8TZZ7jOZVoMo-12" value="图片" style="rounded=1;whiteSpace=wrap;html=1;strokeColor=none;strokeWidth=3;" parent="2FAXvyK_8TZZ7jOZVoMo-1" vertex="1">
          <mxGeometry x="362" y="416" width="80" height="30" as="geometry" />
        </mxCell>
        <mxCell id="2FAXvyK_8TZZ7jOZVoMo-13" value="分享" style="rounded=1;whiteSpace=wrap;html=1;strokeColor=none;strokeWidth=3;" parent="2FAXvyK_8TZZ7jOZVoMo-1" vertex="1">
          <mxGeometry x="465" y="416" width="80" height="30" as="geometry" />
        </mxCell>
        <mxCell id="2FAXvyK_8TZZ7jOZVoMo-14" value="其他原生组件" style="rounded=1;whiteSpace=wrap;html=1;strokeColor=none;strokeWidth=3;" parent="2FAXvyK_8TZZ7jOZVoMo-1" vertex="1">
          <mxGeometry x="572" y="416" width="105" height="30" as="geometry" />
        </mxCell>
        <mxCell id="2FAXvyK_8TZZ7jOZVoMo-15" value="Android 原生服务" style="rounded=0;whiteSpace=wrap;html=1;fillColor=#f5f5f5;strokeColor=none;strokeWidth=3;fontColor=#333333;" parent="2FAXvyK_8TZZ7jOZVoMo-1" vertex="1">
          <mxGeometry x="350" y="473" width="205" height="40" as="geometry" />
        </mxCell>
        <mxCell id="2FAXvyK_8TZZ7jOZVoMo-16" value="IOS 原生服务" style="rounded=0;whiteSpace=wrap;html=1;fillColor=#f5f5f5;strokeColor=none;strokeWidth=3;fontColor=#333333;" parent="2FAXvyK_8TZZ7jOZVoMo-1" vertex="1">
          <mxGeometry x="565" y="473" width="205" height="40" as="geometry" />
        </mxCell>
        <mxCell id="2FAXvyK_8TZZ7jOZVoMo-17" value="" style="rounded=0;whiteSpace=wrap;html=1;strokeColor=default;strokeWidth=1;fillColor=none;dashed=1;" parent="2FAXvyK_8TZZ7jOZVoMo-1" vertex="1">
          <mxGeometry x="330" y="183" width="465" height="349" as="geometry" />
        </mxCell>
      </root>
    </mxGraphModel>
  </diagram>
  <diagram id="SniqXEQjgO_rSX_ZKKO-" name="第 3 页">
    <mxGraphModel dx="1186" dy="773" grid="0" gridSize="10" guides="1" tooltips="1" connect="1" arrows="1" fold="1" page="1" pageScale="1" pageWidth="3300" pageHeight="2339" math="0" shadow="0">
      <root>
        <mxCell id="IfdZzpe1kd6GAIBVF47U-0" />
        <mxCell id="IfdZzpe1kd6GAIBVF47U-1" parent="IfdZzpe1kd6GAIBVF47U-0" />
        <mxCell id="IfdZzpe1kd6GAIBVF47U-6" style="edgeStyle=orthogonalEdgeStyle;rounded=0;orthogonalLoop=1;jettySize=auto;html=1;exitX=0.5;exitY=1;exitDx=0;exitDy=0;entryX=0;entryY=0.5;entryDx=0;entryDy=0;" edge="1" parent="IfdZzpe1kd6GAIBVF47U-1" source="IfdZzpe1kd6GAIBVF47U-2" target="IfdZzpe1kd6GAIBVF47U-4">
          <mxGeometry relative="1" as="geometry" />
        </mxCell>
        <mxCell id="IfdZzpe1kd6GAIBVF47U-2" value="原生" style="rounded=1;whiteSpace=wrap;html=1;fillColor=#dae8fc;strokeColor=none;" vertex="1" parent="IfdZzpe1kd6GAIBVF47U-1">
          <mxGeometry x="260" y="150" width="120" height="60" as="geometry" />
        </mxCell>
        <mxCell id="IfdZzpe1kd6GAIBVF47U-7" style="edgeStyle=orthogonalEdgeStyle;rounded=0;orthogonalLoop=1;jettySize=auto;html=1;exitX=0.5;exitY=1;exitDx=0;exitDy=0;" edge="1" parent="IfdZzpe1kd6GAIBVF47U-1" source="IfdZzpe1kd6GAIBVF47U-3" target="IfdZzpe1kd6GAIBVF47U-4">
          <mxGeometry relative="1" as="geometry" />
        </mxCell>
        <mxCell id="IfdZzpe1kd6GAIBVF47U-3" value="RN" style="rounded=1;whiteSpace=wrap;html=1;fillColor=#ffe6cc;strokeColor=none;" vertex="1" parent="IfdZzpe1kd6GAIBVF47U-1">
          <mxGeometry x="440" y="150" width="120" height="60" as="geometry" />
        </mxCell>
        <mxCell id="IfdZzpe1kd6GAIBVF47U-21" value="" style="edgeStyle=orthogonalEdgeStyle;rounded=0;orthogonalLoop=1;jettySize=auto;html=1;" edge="1" parent="IfdZzpe1kd6GAIBVF47U-1" source="IfdZzpe1kd6GAIBVF47U-4" target="IfdZzpe1kd6GAIBVF47U-17">
          <mxGeometry relative="1" as="geometry" />
        </mxCell>
        <mxCell id="IfdZzpe1kd6GAIBVF47U-4" value="路由中心" style="rounded=1;whiteSpace=wrap;html=1;" vertex="1" parent="IfdZzpe1kd6GAIBVF47U-1">
          <mxGeometry x="440" y="300" width="120" height="60" as="geometry" />
        </mxCell>
        <mxCell id="IfdZzpe1kd6GAIBVF47U-8" style="edgeStyle=orthogonalEdgeStyle;rounded=0;orthogonalLoop=1;jettySize=auto;html=1;exitX=0.5;exitY=1;exitDx=0;exitDy=0;entryX=1;entryY=0.5;entryDx=0;entryDy=0;" edge="1" parent="IfdZzpe1kd6GAIBVF47U-1" source="IfdZzpe1kd6GAIBVF47U-5" target="IfdZzpe1kd6GAIBVF47U-4">
          <mxGeometry relative="1" as="geometry" />
        </mxCell>
        <mxCell id="IfdZzpe1kd6GAIBVF47U-5" value="H5" style="rounded=1;whiteSpace=wrap;html=1;fillColor=#fff2cc;strokeColor=#d6b656;" vertex="1" parent="IfdZzpe1kd6GAIBVF47U-1">
          <mxGeometry x="620" y="150" width="120" height="60" as="geometry" />
        </mxCell>
        <mxCell id="IfdZzpe1kd6GAIBVF47U-20" style="edgeStyle=orthogonalEdgeStyle;rounded=0;orthogonalLoop=1;jettySize=auto;html=1;exitX=1;exitY=0.5;exitDx=0;exitDy=0;entryX=0;entryY=0.5;entryDx=0;entryDy=0;" edge="1" parent="IfdZzpe1kd6GAIBVF47U-1" source="IfdZzpe1kd6GAIBVF47U-14" target="IfdZzpe1kd6GAIBVF47U-19">
          <mxGeometry relative="1" as="geometry" />
        </mxCell>
        <mxCell id="IfdZzpe1kd6GAIBVF47U-24" value="" style="edgeStyle=orthogonalEdgeStyle;rounded=0;orthogonalLoop=1;jettySize=auto;html=1;" edge="1" parent="IfdZzpe1kd6GAIBVF47U-1" source="IfdZzpe1kd6GAIBVF47U-14" target="IfdZzpe1kd6GAIBVF47U-23">
          <mxGeometry relative="1" as="geometry" />
        </mxCell>
        <mxCell id="IfdZzpe1kd6GAIBVF47U-14" value="dispatch" style="rhombus;whiteSpace=wrap;html=1;rounded=1;" vertex="1" parent="IfdZzpe1kd6GAIBVF47U-1">
          <mxGeometry x="460" y="480" width="80" height="80" as="geometry" />
        </mxCell>
        <mxCell id="IfdZzpe1kd6GAIBVF47U-16" style="edgeStyle=orthogonalEdgeStyle;rounded=0;orthogonalLoop=1;jettySize=auto;html=1;exitX=0.5;exitY=1;exitDx=0;exitDy=0;" edge="1" parent="IfdZzpe1kd6GAIBVF47U-1" source="IfdZzpe1kd6GAIBVF47U-14" target="IfdZzpe1kd6GAIBVF47U-14">
          <mxGeometry relative="1" as="geometry" />
        </mxCell>
        <mxCell id="IfdZzpe1kd6GAIBVF47U-22" value="" style="edgeStyle=orthogonalEdgeStyle;rounded=0;orthogonalLoop=1;jettySize=auto;html=1;" edge="1" parent="IfdZzpe1kd6GAIBVF47U-1" source="IfdZzpe1kd6GAIBVF47U-17" target="IfdZzpe1kd6GAIBVF47U-14">
          <mxGeometry relative="1" as="geometry" />
        </mxCell>
        <mxCell id="IfdZzpe1kd6GAIBVF47U-39" style="edgeStyle=orthogonalEdgeStyle;rounded=0;orthogonalLoop=1;jettySize=auto;html=1;exitX=1;exitY=0.5;exitDx=0;exitDy=0;fontSize=17;" edge="1" parent="IfdZzpe1kd6GAIBVF47U-1" source="IfdZzpe1kd6GAIBVF47U-17" target="IfdZzpe1kd6GAIBVF47U-31">
          <mxGeometry relative="1" as="geometry" />
        </mxCell>
        <mxCell id="IfdZzpe1kd6GAIBVF47U-17" value="路由管理栈" style="whiteSpace=wrap;html=1;rounded=1;" vertex="1" parent="IfdZzpe1kd6GAIBVF47U-1">
          <mxGeometry x="460" y="400" width="80" height="40" as="geometry" />
        </mxCell>
        <mxCell id="IfdZzpe1kd6GAIBVF47U-19" value="端内部&lt;br&gt;路由" style="whiteSpace=wrap;html=1;rounded=1;" vertex="1" parent="IfdZzpe1kd6GAIBVF47U-1">
          <mxGeometry x="620" y="500" width="80" height="40" as="geometry" />
        </mxCell>
        <mxCell id="IfdZzpe1kd6GAIBVF47U-23" value="跨端路由" style="whiteSpace=wrap;html=1;rounded=1;" vertex="1" parent="IfdZzpe1kd6GAIBVF47U-1">
          <mxGeometry x="460" y="600" width="80" height="40" as="geometry" />
        </mxCell>
        <mxCell id="IfdZzpe1kd6GAIBVF47U-25" value="" style="line;strokeWidth=1;html=1;dashed=1;" vertex="1" parent="IfdZzpe1kd6GAIBVF47U-1">
          <mxGeometry x="225" y="240" width="550" height="10" as="geometry" />
        </mxCell>
        <mxCell id="IfdZzpe1kd6GAIBVF47U-26" value="路由端" style="text;html=1;align=center;verticalAlign=middle;resizable=0;points=[];autosize=1;strokeColor=none;fillColor=none;fontSize=17;" vertex="1" parent="IfdZzpe1kd6GAIBVF47U-1">
          <mxGeometry x="135" y="180" width="70" height="30" as="geometry" />
        </mxCell>
        <mxCell id="IfdZzpe1kd6GAIBVF47U-27" value="路由处理中心" style="text;html=1;align=center;verticalAlign=middle;resizable=0;points=[];autosize=1;strokeColor=none;fillColor=none;fontSize=17;" vertex="1" parent="IfdZzpe1kd6GAIBVF47U-1">
          <mxGeometry x="110" y="460" width="120" height="30" as="geometry" />
        </mxCell>
        <mxCell id="IfdZzpe1kd6GAIBVF47U-31" value="" style="strokeWidth=2;html=1;shape=mxgraph.flowchart.annotation_2;align=left;labelPosition=right;pointerEvents=1;fontSize=17;" vertex="1" parent="IfdZzpe1kd6GAIBVF47U-1">
          <mxGeometry x="720" y="320" width="50" height="200" as="geometry" />
        </mxCell>
        <mxCell id="IfdZzpe1kd6GAIBVF47U-32" value="" style="verticalLabelPosition=bottom;verticalAlign=top;html=1;shadow=0;dashed=0;strokeWidth=2;shape=mxgraph.android.navigation_bar_2;fillColor=#1A1A1A;strokeColor=#999999;sketch=0;fontSize=17;" vertex="1" parent="IfdZzpe1kd6GAIBVF47U-1">
          <mxGeometry x="820" y="370" width="185" height="30" as="geometry" />
        </mxCell>
        <mxCell id="IfdZzpe1kd6GAIBVF47U-33" value="" style="strokeWidth=1;html=1;shadow=0;dashed=0;shape=mxgraph.android.action_bar;fillColor=#1A1A1A;strokeColor=#c0c0c0;strokeWidth=2;fontColor=#FFFFFF;fontSize=17;" vertex="1" parent="IfdZzpe1kd6GAIBVF47U-1">
          <mxGeometry x="820" y="300" width="185" height="30" as="geometry" />
        </mxCell>
        <mxCell id="IfdZzpe1kd6GAIBVF47U-35" value="侧滑返回" style="rounded=1;whiteSpace=wrap;html=1;absoluteArcSize=1;arcSize=14;strokeWidth=2;fontSize=17;direction=west;fillColor=#f5f5f5;fontColor=#333333;strokeColor=#666666;" vertex="1" parent="IfdZzpe1kd6GAIBVF47U-1">
          <mxGeometry x="820" y="440" width="185" height="30" as="geometry" />
        </mxCell>
        <mxCell id="IfdZzpe1kd6GAIBVF47U-36" value="点击事件" style="rounded=1;whiteSpace=wrap;html=1;absoluteArcSize=1;arcSize=14;strokeWidth=2;fontSize=17;direction=west;fillColor=#f5f5f5;fontColor=#333333;strokeColor=#666666;" vertex="1" parent="IfdZzpe1kd6GAIBVF47U-1">
          <mxGeometry x="820" y="510" width="185" height="30" as="geometry" />
        </mxCell>
        <mxCell id="IfdZzpe1kd6GAIBVF47U-40" value="" style="rounded=0;whiteSpace=wrap;html=1;fontSize=17;strokeWidth=1;" vertex="1" parent="IfdZzpe1kd6GAIBVF47U-1">
          <mxGeometry x="1030" y="825" width="120" height="300" as="geometry" />
        </mxCell>
        <mxCell id="IfdZzpe1kd6GAIBVF47U-41" value="" style="rounded=0;whiteSpace=wrap;html=1;fontSize=17;strokeWidth=1;fillColor=#fff2cc;strokeColor=#d6b656;" vertex="1" parent="IfdZzpe1kd6GAIBVF47U-1">
          <mxGeometry x="855" y="1020" width="120" height="20" as="geometry" />
        </mxCell>
        <mxCell id="IfdZzpe1kd6GAIBVF47U-42" value="" style="rounded=0;whiteSpace=wrap;html=1;fontSize=17;strokeWidth=1;fillColor=#ffe6cc;strokeColor=#d79b00;" vertex="1" parent="IfdZzpe1kd6GAIBVF47U-1">
          <mxGeometry x="855" y="1060" width="120" height="20" as="geometry" />
        </mxCell>
        <mxCell id="IfdZzpe1kd6GAIBVF47U-43" value="" style="rounded=0;whiteSpace=wrap;html=1;fontSize=17;strokeWidth=1;fillColor=#dae8fc;strokeColor=#6c8ebf;" vertex="1" parent="IfdZzpe1kd6GAIBVF47U-1">
          <mxGeometry x="855" y="1100" width="120" height="20" as="geometry" />
        </mxCell>
        <mxCell id="IfdZzpe1kd6GAIBVF47U-44" value="RN" style="text;html=1;align=center;verticalAlign=middle;resizable=0;points=[];autosize=1;strokeColor=none;fillColor=none;fontSize=17;" vertex="1" parent="IfdZzpe1kd6GAIBVF47U-1">
          <mxGeometry x="795" y="1055" width="40" height="30" as="geometry" />
        </mxCell>
        <mxCell id="IfdZzpe1kd6GAIBVF47U-45" value="H5" style="text;html=1;align=center;verticalAlign=middle;resizable=0;points=[];autosize=1;strokeColor=none;fillColor=none;fontSize=17;" vertex="1" parent="IfdZzpe1kd6GAIBVF47U-1">
          <mxGeometry x="795" y="1015" width="40" height="30" as="geometry" />
        </mxCell>
        <mxCell id="IfdZzpe1kd6GAIBVF47U-46" value="原生" style="text;html=1;align=center;verticalAlign=middle;resizable=0;points=[];autosize=1;strokeColor=none;fillColor=none;fontSize=17;" vertex="1" parent="IfdZzpe1kd6GAIBVF47U-1">
          <mxGeometry x="790" y="1095" width="50" height="30" as="geometry" />
        </mxCell>
        <mxCell id="IfdZzpe1kd6GAIBVF47U-47" value="1" style="rounded=0;whiteSpace=wrap;html=1;fontSize=17;strokeWidth=1;fillColor=#dae8fc;strokeColor=#6c8ebf;" vertex="1" parent="IfdZzpe1kd6GAIBVF47U-1">
          <mxGeometry x="1030" y="1105" width="120" height="20" as="geometry" />
        </mxCell>
        <mxCell id="IfdZzpe1kd6GAIBVF47U-48" value="2" style="rounded=0;whiteSpace=wrap;html=1;fontSize=17;strokeWidth=1;fillColor=#ffe6cc;strokeColor=#d79b00;" vertex="1" parent="IfdZzpe1kd6GAIBVF47U-1">
          <mxGeometry x="1030" y="1085" width="120" height="20" as="geometry" />
        </mxCell>
        <mxCell id="IfdZzpe1kd6GAIBVF47U-49" value="3" style="rounded=0;whiteSpace=wrap;html=1;fontSize=17;strokeWidth=1;fillColor=#fff2cc;strokeColor=#d6b656;" vertex="1" parent="IfdZzpe1kd6GAIBVF47U-1">
          <mxGeometry x="1030" y="1065" width="120" height="20" as="geometry" />
        </mxCell>
        <mxCell id="IfdZzpe1kd6GAIBVF47U-50" value="4" style="rounded=0;whiteSpace=wrap;html=1;fontSize=17;strokeWidth=1;fillColor=#ffe6cc;strokeColor=#d79b00;" vertex="1" parent="IfdZzpe1kd6GAIBVF47U-1">
          <mxGeometry x="1030" y="1045" width="120" height="20" as="geometry" />
        </mxCell>
        <mxCell id="IfdZzpe1kd6GAIBVF47U-51" value="5" style="rounded=0;whiteSpace=wrap;html=1;fontSize=17;strokeWidth=1;fillColor=#ffe6cc;strokeColor=#d79b00;" vertex="1" parent="IfdZzpe1kd6GAIBVF47U-1">
          <mxGeometry x="1030" y="1025" width="120" height="20" as="geometry" />
        </mxCell>
        <mxCell id="IfdZzpe1kd6GAIBVF47U-53" value="6" style="rounded=0;whiteSpace=wrap;html=1;fontSize=17;strokeWidth=1;fillColor=#dae8fc;strokeColor=#6c8ebf;" vertex="1" parent="IfdZzpe1kd6GAIBVF47U-1">
          <mxGeometry x="1030" y="1005" width="120" height="20" as="geometry" />
        </mxCell>
        <mxCell id="IfdZzpe1kd6GAIBVF47U-56" value="路由中心&amp;lt;Stack&amp;gt;" style="text;html=1;align=center;verticalAlign=middle;resizable=0;points=[];autosize=1;strokeColor=none;fillColor=none;fontSize=17;" vertex="1" parent="IfdZzpe1kd6GAIBVF47U-1">
          <mxGeometry x="1015" y="1135" width="150" height="30" as="geometry" />
        </mxCell>
        <mxCell id="IfdZzpe1kd6GAIBVF47U-58" value="" style="rounded=0;whiteSpace=wrap;html=1;fontSize=17;strokeWidth=1;" vertex="1" parent="IfdZzpe1kd6GAIBVF47U-1">
          <mxGeometry x="1205" y="826" width="120" height="300" as="geometry" />
        </mxCell>
        <mxCell id="IfdZzpe1kd6GAIBVF47U-60" value="2" style="rounded=0;whiteSpace=wrap;html=1;fontSize=17;strokeWidth=1;fillColor=#ffe6cc;strokeColor=#d79b00;" vertex="1" parent="IfdZzpe1kd6GAIBVF47U-1">
          <mxGeometry x="1205" y="1106" width="120" height="20" as="geometry" />
        </mxCell>
        <mxCell id="IfdZzpe1kd6GAIBVF47U-62" value="4" style="rounded=0;whiteSpace=wrap;html=1;fontSize=17;strokeWidth=1;fillColor=#ffe6cc;strokeColor=#d79b00;" vertex="1" parent="IfdZzpe1kd6GAIBVF47U-1">
          <mxGeometry x="1205" y="1086" width="120" height="20" as="geometry" />
        </mxCell>
        <mxCell id="IfdZzpe1kd6GAIBVF47U-63" value="5" style="rounded=0;whiteSpace=wrap;html=1;fontSize=17;strokeWidth=1;fillColor=#ffe6cc;strokeColor=#d79b00;" vertex="1" parent="IfdZzpe1kd6GAIBVF47U-1">
          <mxGeometry x="1205" y="1064" width="120" height="20" as="geometry" />
        </mxCell>
        <mxCell id="IfdZzpe1kd6GAIBVF47U-65" value="RN&amp;lt;Stack&amp;gt;" style="text;html=1;align=center;verticalAlign=middle;resizable=0;points=[];autosize=1;strokeColor=none;fillColor=none;fontSize=17;" vertex="1" parent="IfdZzpe1kd6GAIBVF47U-1">
          <mxGeometry x="1215" y="1135" width="100" height="30" as="geometry" />
        </mxCell>
        <mxCell id="IfdZzpe1kd6GAIBVF47U-66" value="" style="rounded=0;whiteSpace=wrap;html=1;fontSize=17;strokeWidth=1;" vertex="1" parent="IfdZzpe1kd6GAIBVF47U-1">
          <mxGeometry x="1375" y="826" width="120" height="300" as="geometry" />
        </mxCell>
        <mxCell id="IfdZzpe1kd6GAIBVF47U-69" value="1" style="rounded=0;whiteSpace=wrap;html=1;fontSize=17;strokeWidth=1;fillColor=#fff2cc;strokeColor=#d6b656;" vertex="1" parent="IfdZzpe1kd6GAIBVF47U-1">
          <mxGeometry x="1375" y="1106" width="120" height="20" as="geometry" />
        </mxCell>
        <mxCell id="IfdZzpe1kd6GAIBVF47U-73" value="H5&amp;lt;Stack&amp;gt;" style="text;html=1;align=center;verticalAlign=middle;resizable=0;points=[];autosize=1;strokeColor=none;fillColor=none;fontSize=17;" vertex="1" parent="IfdZzpe1kd6GAIBVF47U-1">
          <mxGeometry x="1385" y="1135" width="100" height="30" as="geometry" />
        </mxCell>
        <mxCell id="IfdZzpe1kd6GAIBVF47U-77" value="" style="strokeWidth=2;html=1;shape=mxgraph.flowchart.annotation_2;align=left;labelPosition=right;pointerEvents=1;fontSize=17;rotation=90;" vertex="1" parent="IfdZzpe1kd6GAIBVF47U-1">
          <mxGeometry x="1335" y="680" width="50" height="226" as="geometry" />
        </mxCell>
        <mxCell id="IfdZzpe1kd6GAIBVF47U-78" value="端内的路由" style="text;html=1;align=center;verticalAlign=middle;resizable=0;points=[];autosize=1;strokeColor=none;fillColor=none;fontSize=17;" vertex="1" parent="IfdZzpe1kd6GAIBVF47U-1">
          <mxGeometry x="1310" y="730" width="100" height="30" as="geometry" />
        </mxCell>
        <mxCell id="IfdZzpe1kd6GAIBVF47U-79" value="PS：路由中心管理只针对页面级别&lt;br&gt;" style="text;html=1;align=center;verticalAlign=middle;resizable=0;points=[];autosize=1;strokeColor=none;fillColor=none;fontSize=17;" vertex="1" parent="IfdZzpe1kd6GAIBVF47U-1">
          <mxGeometry x="810" y="1230" width="280" height="30" as="geometry" />
        </mxCell>
        <mxCell id="IfdZzpe1kd6GAIBVF47U-80" value="" style="verticalLabelPosition=bottom;verticalAlign=top;html=1;shadow=0;dashed=0;strokeWidth=1;shape=mxgraph.android.phone2;strokeColor=#c0c0c0;fontSize=17;" vertex="1" parent="IfdZzpe1kd6GAIBVF47U-1">
          <mxGeometry x="318" y="764" width="200" height="390" as="geometry" />
        </mxCell>
      </root>
    </mxGraphModel>
  </diagram>
</mxfile>
